<svg version="1.1" id="Layer_1" xmlns="http://www.w3.org/2000/svg" x="0" y="0" viewBox="0 0 18.3 18.3" xml:space="preserve"><style>.st1{fill:#fff}</style><circle cx="9.1" cy="9.1" r="9.1" fill="#416db5"/><path class="st1" d="M16.5 7.1c-.1-.4-.5-.6-.9-.6h-4.2l-1.3-4c-.1-.4-.4-.7-.8-.7s-.8.3-.9.6l-1.3 4H2.9c-.4 0-.7.3-.9.7s0 .8.3 1l3.4 2.5-1.3 4c-.1.3 0 .6.1.8.2.2.4.4.7.4.2 0 .4-.1.5-.2l3.4-2.5 3.4 2.5c.2.1.3.2.5.2.3 0 .6-.1.7-.4.2-.2.2-.5.1-.8l-1.3-4 3.4-2.5c.6-.2.7-.7.6-1zm-.5.8l-3.4 2.5c-.1.1-.1.2-.1.3l1.3 4c.1.2 0 .4-.1.6s-.3.3-.5.3c-.1 0-.3 0-.4-.1L9.4 13c-.1 0-.1-.1-.2-.1s-.1 0-.2.1l-3.4 2.5c-.1.1-.2.1-.4.1v.1-.1c-.2 0-.4-.1-.5-.3-.1-.2-.2-.4-.1-.6l1.3-4c0-.1 0-.3-.1-.3L2.5 7.9c-.2-.2-.3-.5-.2-.7s.3-.4.6-.4h4.2c.1 0 .2-.1.3-.2l1.3-4c.1-.3.3-.5.6-.5s.5.2.6.4l1.3 4c0 .1.2.2.3.2h4.2c.3 0 .5.2.6.4s-.1.6-.3.8z"/><path class="st1" d="M15.6 7.2h-4.2c-.3 0-.6-.2-.7-.5l-1.3-4c-.1-.2-.3-.2-.4 0l-1.3 4c0 .3-.3.5-.6.5H2.9c-.2 0-.3.2-.1.3L6.2 10c.3.2.4.5.3.8l-1.3 4c-.1.2.1.3.2.2l3.4-2.5c.3-.2.6-.2.9 0l3.4 2.5c.1.1.3 0 .3-.2l-1.3-4c-.1-.3 0-.6.3-.8l3.4-2.5c.1-.1 0-.3-.2-.3z"/></svg>