<?xml version="1.0" encoding="UTF-8" standalone="no"?>
<svg
   xmlns:dc="http://purl.org/dc/elements/1.1/"
   xmlns:cc="http://creativecommons.org/ns#"
   xmlns:rdf="http://www.w3.org/1999/02/22-rdf-syntax-ns#"
   xmlns:svg="http://www.w3.org/2000/svg"
   xmlns="http://www.w3.org/2000/svg"
   xmlns:sodipodi="http://sodipodi.sourceforge.net/DTD/sodipodi-0.dtd"
   xmlns:inkscape="http://www.inkscape.org/namespaces/inkscape"
   width="83px"
   height="76px"
   viewBox="0 0 83 76"
   version="1.1"
   id="svg2"
   inkscape:version="0.91 r13725"
   sodipodi:docname="open-widget1.svg">
  <metadata
     id="metadata18">
    <rdf:RDF>
      <cc:Work
         rdf:about="">
        <dc:format>image/svg+xml</dc:format>
        <dc:type
           rdf:resource="http://purl.org/dc/dcmitype/StillImage" />
        <dc:title>Remarq-Widget</dc:title>
      </cc:Work>
    </rdf:RDF>
  </metadata>
  <sodipodi:namedview
     pagecolor="#ffffff"
     bordercolor="#666666"
     borderopacity="1"
     objecttolerance="10"
     gridtolerance="10"
     guidetolerance="10"
     inkscape:pageopacity="0"
     inkscape:pageshadow="2"
     inkscape:window-width="1250"
     inkscape:window-height="755"
     id="namedview16"
     showgrid="false"
     inkscape:zoom="3.1052632"
     inkscape:cx="67.584746"
     inkscape:cy="38"
     inkscape:window-x="30"
     inkscape:window-y="1"
     inkscape:window-maximized="1"
     inkscape:current-layer="Remarq-Widget" />
  <!-- Generator: Sketch 41.2 (35397) - http://www.bohemiancoding.com/sketch -->
  <title
     id="title4">Remarq-Widget</title>
  <desc
     id="desc6">Created with Sketch.</desc>
  <defs
     id="defs8" />
  <g
     id="Symbols"
     stroke="none"
     stroke-width="1"
     fill="none"
     fill-rule="evenodd">
    <g
       id="Remarq-Widget">
      <g
         id="Page-1"
         transform="translate(8.000000, 0.000000)">
        <path
           d="M43.6958113,57.423 C43.0820755,57.5107944 42.4690566,57.5554112 41.9435094,57.5554112 C37.6946792,57.5554112 34.9794717,55.5332617 34.9794717,51.6199346 L34.9794717,49.6855794 C29.723283,48.981785 26,45.3332804 26,39.7497009 L26,29.1992617 C26,22.9118879 31.0805283,19 37.3447925,19 C43.5638868,19 48.7333208,22.8687103 48.7333208,29.1553645 L48.7333208,39.7497009 C48.7333208,45.3778972 44.8343774,49.0264019 39.5781887,49.6855794 L39.5781887,50.3893738 C39.5781887,52.8951121 40.2793962,53.4664953 43.0383396,53.4664953 L43.6958113,53.4664953 L43.6958113,57.423 Z M43.6958113,30.6054112 C43.6958113,29.5511589 43.5638868,28.5832617 43.3007547,27.7923925 C42.6009811,24.8469626 40.06,23.6595794 37.3447925,23.6595794 C34.0151321,23.6595794 31.0375094,25.462243 31.0375094,29.9023364 L31.0375094,38.386729 C31.0375094,39.4424206 31.168717,40.3657009 31.3873962,41.2004673 C32.1323396,44.1027196 34.6726038,45.2893832 37.3447925,45.2893832 C40.6730189,45.2893832 43.6958113,43.574514 43.6958113,39.0905234 L43.6958113,30.6054112 Z"
           id="Fill-2"
           fill="#FFFFFF" />
      </g>
    </g>
  </g>
</svg>
