<?xml version="1.0" encoding="utf-8"?>
<!-- Generator: Adobe Illustrator 23.0.4, SVG Export Plug-In . SVG Version: 6.00 Build 0)  -->
<svg version="1.1" id="Layer_1" xmlns="http://www.w3.org/2000/svg" xmlns:xlink="http://www.w3.org/1999/xlink" x="0px" y="0px"
	 viewBox="0 0 875.3 77.6" style="enable-background:new 0 0 875.3 77.6;" xml:space="preserve">
<style type="text/css">
	.st0{fill:#0065A4;}
</style>
<path class="st0" d="M57.1,24.7c-2.4-11-11.4-17.2-21.8-17.2C16.5,7.5,8.5,23.2,8.5,38.8c0,15.5,8,31.3,26.8,31.3
	c13.1,0,21.5-10.2,22.8-22.8h6.8C63,64.7,52,75.9,35.3,75.9c-22.4,0-33.5-17.6-33.5-37s11.1-37,33.5-37c13.4,0,26.8,8.1,28.6,23
	h-6.8V24.7z"/>
<path class="st0" d="M74.1,3.2h6.3v10.1h-6.3V3.2z M74.1,22.9h6.3v51.4h-6.3V22.9z"/>
<path class="st0" d="M92.5,22.9h5.8v12h0.2c3.2-8.3,10.2-13.1,19.4-12.7v6.3c-11.3-0.6-19.1,7.8-19.1,18.4v27.4h-6.3V22.9z"/>
<path class="st0" d="M158.3,39c-1.7-7.7-6.4-12.3-14.5-12.3c-12,0-18,11-18,21.9s6,21.9,18,21.9c7.8,0,14.1-6.1,14.9-14.6h6.3
	c-1.7,12.3-9.8,19.9-21.2,19.9c-15.7,0-24.3-12.4-24.3-27.2s8.6-27.2,24.3-27.2c11,0,19.4,5.9,20.8,17.6L158.3,39L158.3,39z"/>
<path class="st0" d="M215.3,74.2h-5.8v-9.3h-0.2c-3.3,6.9-10.1,10.8-17.7,10.8c-12.9,0-18-7.6-18-19.5V22.9h6.3v33.4
	c0.3,9.3,3.8,14.1,13.7,14.1c10.8,0,15.4-10.2,15.4-20.6v-27h6.3V74.2z"/>
<path class="st0" d="M227.2,3.2h6.3v71.1h-6.3V3.2z"/>
<path class="st0" d="M245,38.6c0.6-12,9.1-17.2,20.8-17.2c9.1,0,18.9,2.8,18.9,16.5v27.3c0,2.4,1.2,3.8,3.7,3.8c0.7,0,1.5-0.2,2-0.4
	v5.3c-1.4,0.3-2.4,0.4-4.1,0.4c-6.4,0-7.4-3.6-7.4-9h-0.2c-4.4,6.7-8.9,10.5-18.7,10.5c-9.5,0-17.2-4.7-17.2-15
	c0-14.4,14-14.9,27.6-16.5c5.2-0.6,8.1-1.3,8.1-7c0-8.5-6.1-10.6-13.4-10.6c-7.8,0-13.5,3.6-13.7,11.9L245,38.6L245,38.6z
	 M278.4,46.2h-0.2c-0.8,1.5-3.6,2-5.3,2.3c-10.7,1.9-23.9,1.8-23.9,11.8c0,6.3,5.6,10.2,11.4,10.2c9.6,0,18-6.1,17.9-16.1v-8.2
	H278.4z"/>
<path class="st0" d="M307.2,22.9h10.5v5.3h-10.5v34.6c0,4.1,0.6,6.5,5.1,6.8c1.8,0,3.6-0.1,5.4-0.3v5.4c-1.9,0-3.7,0.2-5.6,0.2
	c-8.4,0-11.2-2.8-11.1-11.5V28.3h-9V23h9V7.4h6.3L307.2,22.9L307.2,22.9z"/>
<path class="st0" d="M326.8,3.2h6.3v10.1h-6.3V3.2z M326.8,22.9h6.3v51.4h-6.3V22.9z"/>
<path class="st0" d="M391.1,48.6c0,14.7-8.6,27.2-24.3,27.2s-24.3-12.4-24.3-27.2s8.6-27.2,24.3-27.2S391.1,33.8,391.1,48.6z
	 M348.8,48.6c0,11,6,21.9,18,21.9s18-11,18-21.9s-6-21.9-18-21.9S348.8,37.6,348.8,48.6z"/>
<path class="st0" d="M400.4,22.9h6.3v8.9h0.2c2.3-6.2,9.2-10.4,16.4-10.4c14.4,0,18.8,7.6,18.8,19.8v33h-6.3V42.1
	c0-8.9-2.9-15.5-13-15.5c-10,0-15.9,7.6-16.1,17.6v30h-6.3V22.9z"/>
<path class="st0" d="M482.8,3.2h32.6c11.7,0,21.6,5.7,21.6,18.5c0,9-4.7,16.3-13.8,18.1V40c9.3,1.2,11.9,7.6,12.4,16
	c0.3,4.9,0.3,14.6,3.3,18.2h-7.5c-1.7-2.8-1.7-8.1-1.9-11c-0.6-10-1.4-21-14.2-20.5h-25.7v31.6h-6.8L482.8,3.2L482.8,3.2z
	 M489.6,36.9h25.3c8.3,0,15.3-5.2,15.3-13.8c0-8.7-5.2-14.1-15.3-14.1h-25.3V36.9z"/>
<path class="st0" d="M551.7,50.3c0.1,9.2,4.9,20.2,16.9,20.2c9.2,0,14.1-5.4,16.1-13.1h6.3c-2.7,11.6-9.5,18.4-22.4,18.4
	c-16.3,0-23.2-12.5-23.2-27.2c0-13.5,6.9-27.2,23.2-27.2c16.5,0,23.1,14.4,22.6,28.9L551.7,50.3L551.7,50.3z M584.9,45
	c-0.3-9.5-6.2-18.3-16.3-18.3c-10.3,0-15.9,9-16.9,18.3H584.9z"/>
<path class="st0" d="M630.4,37.9c-0.3-7.8-6.3-11.2-13.4-11.2c-5.6,0-12.1,2.2-12.1,8.9c0,5.6,6.4,7.6,10.7,8.7l8.4,1.9
	c7.2,1.1,14.6,5.3,14.6,14.2c0,11.1-11,15.4-20.6,15.4c-11.9,0-20.1-5.6-21.1-18.1h6.3c0.5,8.5,6.8,12.8,15.1,12.8
	c5.9,0,14-2.6,14-9.8c0-6-5.6-8-11.2-9.4l-8.1-1.8c-8.2-2.2-14.3-5-14.3-13.7c0-10.5,10.3-14.4,19.3-14.4c10.3,0,18.4,5.4,18.8,16.5
	C636.8,37.9,630.4,37.9,630.4,37.9z"/>
<path class="st0" d="M651.2,50.3c0.1,9.2,4.9,20.2,16.9,20.2c9.2,0,14.1-5.4,16.1-13.1h6.3c-2.7,11.6-9.5,18.4-22.4,18.4
	c-16.3,0-23.2-12.5-23.2-27.2c0-13.5,6.9-27.2,23.2-27.2c16.5,0,23.1,14.4,22.6,28.9L651.2,50.3L651.2,50.3z M684.5,45
	c-0.3-9.5-6.2-18.3-16.3-18.3c-10.3,0-15.9,9-16.9,18.3H684.5z"/>
<path class="st0" d="M698.6,38.6c0.6-12,9.1-17.2,20.8-17.2c9.1,0,18.9,2.8,18.9,16.5v27.3c0,2.4,1.2,3.8,3.7,3.8
	c0.7,0,1.5-0.2,2-0.4v5.3c-1.4,0.3-2.4,0.4-4.1,0.4c-6.4,0-7.4-3.6-7.4-9h-0.2c-4.4,6.7-8.9,10.5-18.7,10.5c-9.5,0-17.2-4.7-17.2-15
	c0-14.4,14-14.9,27.6-16.5c5.2-0.6,8.1-1.3,8.1-7c0-8.5-6.1-10.6-13.4-10.6c-7.8,0-13.5,3.6-13.7,11.9L698.6,38.6L698.6,38.6z
	 M732.1,46.2h-0.2c-0.8,1.5-3.6,2-5.3,2.3c-10.7,1.9-23.9,1.8-23.9,11.8c0,6.3,5.6,10.2,11.4,10.2c9.6,0,18-6.1,17.9-16.1
	L732.1,46.2L732.1,46.2z"/>
<path class="st0" d="M750.9,22.9h5.8v12h0.2c3.2-8.3,10.2-13.1,19.4-12.7v6.3c-11.3-0.6-19.1,7.8-19.1,18.4v27.4h-6.3L750.9,22.9
	L750.9,22.9z"/>
<path class="st0" d="M816.7,39c-1.7-7.7-6.4-12.3-14.5-12.3c-12,0-18,11-18,21.9s6,21.9,18,21.9c7.8,0,14.1-6.1,14.9-14.6h6.3
	c-1.7,12.3-9.8,19.9-21.2,19.9c-15.7,0-24.3-12.4-24.3-27.2s8.6-27.2,24.3-27.2c11,0,19.4,5.9,20.8,17.6L816.7,39L816.7,39z"/>
<path class="st0" d="M832,3.2h6.3v28.6h0.2c2.3-6.2,9.2-10.4,16.4-10.4c14.4,0,18.8,7.6,18.8,19.8v33h-6.3V42.1
	c0-8.9-2.9-15.5-13-15.5c-10,0-15.9,7.6-16.1,17.6v30H832L832,3.2L832,3.2z"/>
</svg>
